<svg xmlns="http://www.w3.org/2000/svg" xmlns:xlink="http://www.w3.org/1999/xlink"><symbol id="angle-arrow-down" viewBox="0 0 284.929 284.929">
<g>
	<path d="M282.082,76.511l-14.274-14.273c-1.902-1.906-4.093-2.856-6.57-2.856c-2.471,0-4.661,0.95-6.563,2.856L142.466,174.441
		L30.262,62.241c-1.903-1.906-4.093-2.856-6.567-2.856c-2.475,0-4.665,0.95-6.567,2.856L2.856,76.515C0.95,78.417,0,80.607,0,83.082
		c0,2.473,0.953,4.663,2.856,6.565l133.043,133.046c1.902,1.903,4.093,2.854,6.567,2.854s4.661-0.951,6.562-2.854L282.082,89.647
		c1.902-1.903,2.847-4.093,2.847-6.565C284.929,80.607,283.984,78.417,282.082,76.511z"/>
</g>
<g>
</g>
<g>
</g>
<g>
</g>
<g>
</g>
<g>
</g>
<g>
</g>
<g>
</g>
<g>
</g>
<g>
</g>
<g>
</g>
<g>
</g>
<g>
</g>
<g>
</g>
<g>
</g>
<g>
</g>
</symbol><symbol id="quotation" viewBox="0 0 310.284 310.284">
<path d="M155.142,0C69.597,0,0,69.597,0,155.142s69.597,155.142,155.142,155.142s155.142-69.597,155.142-155.142
	S240.688,0,155.142,0z M79.171,231.401c-1.746,1.182-6.129,2.222-8.693-0.625l-4.731-5.95c-2.288-3.869,0.483-7.457,2.277-8.945
	c8.529-7.075,14.731-12.548,18.601-16.419c7.589-7.981,13.199-15.97,16.903-23.935c0.847-1.821-1.315-2.977-2.438-3.345
	c-27.967-9.166-41.955-25.325-41.955-48.474c0-13.639,4.53-24.722,13.585-33.242c9.059-8.525,20.407-12.785,34.041-12.785
	c12.146,0,22.909,5.539,32.283,16.621c9.165,10.438,13.744,21.735,13.744,33.881C152.789,163.78,128.251,198.185,79.171,231.401z
	 M185.61,231.401c-1.746,1.182-6.129,2.222-8.693-0.625l-4.731-5.95c-2.288-3.869,0.483-7.457,2.277-8.945
	c8.528-7.075,14.731-12.548,18.601-16.419c7.589-7.981,13.199-15.97,16.904-23.935c0.847-1.821-1.315-2.977-2.438-3.345
	c-27.967-9.166-41.955-25.325-41.955-48.474c0-13.639,4.53-24.722,13.585-33.242c9.06-8.525,20.407-12.785,34.041-12.785
	c12.146,0,22.909,5.539,32.283,16.621c9.164,10.438,13.744,21.735,13.744,33.881C259.228,163.78,234.69,198.185,185.61,231.401z"/>
<g>
</g>
<g>
</g>
<g>
</g>
<g>
</g>
<g>
</g>
<g>
</g>
<g>
</g>
<g>
</g>
<g>
</g>
<g>
</g>
<g>
</g>
<g>
</g>
<g>
</g>
<g>
</g>
<g>
</g>
</symbol><symbol id="star" viewBox="0 0 487.222 487.222">
<g>
	<path d="M486.554,186.811c-1.6-4.9-5.8-8.4-10.9-9.2l-152-21.6l-68.4-137.5c-2.3-4.6-7-7.5-12.1-7.5l0,0c-5.1,0-9.8,2.9-12.1,7.6
		l-67.5,137.9l-152,22.6c-5.1,0.8-9.3,4.3-10.9,9.2s-0.2,10.3,3.5,13.8l110.3,106.9l-25.5,151.4c-0.9,5.1,1.2,10.2,5.4,13.2
		c2.3,1.7,5.1,2.6,7.9,2.6c2.2,0,4.3-0.5,6.3-1.6l135.7-71.9l136.1,71.1c2,1,4.1,1.5,6.2,1.5l0,0c7.4,0,13.5-6.1,13.5-13.5
		c0-1.1-0.1-2.1-0.4-3.1l-26.3-150.5l109.6-107.5C486.854,197.111,488.154,191.711,486.554,186.811z M349.554,293.911
		c-3.2,3.1-4.6,7.6-3.8,12l22.9,131.3l-118.2-61.7c-3.9-2.1-8.6-2-12.6,0l-117.8,62.4l22.1-131.5c0.7-4.4-0.7-8.8-3.9-11.9
		l-95.6-92.8l131.9-19.6c4.4-0.7,8.2-3.4,10.1-7.4l58.6-119.7l59.4,119.4c2,4,5.8,6.7,10.2,7.4l132,18.8L349.554,293.911z"/>
</g>
<g>
</g>
<g>
</g>
<g>
</g>
<g>
</g>
<g>
</g>
<g>
</g>
<g>
</g>
<g>
</g>
<g>
</g>
<g>
</g>
<g>
</g>
<g>
</g>
<g>
</g>
<g>
</g>
<g>
</g>
</symbol></svg>