<svg xmlns="http://www.w3.org/2000/svg" xmlns:xlink="http://www.w3.org/1999/xlink"><symbol id="angle-arrow-down" viewBox="0 0 284.929 284.929">
<g>
	<path d="M282.082,76.511l-14.274-14.273c-1.902-1.906-4.093-2.856-6.57-2.856c-2.471,0-4.661,0.95-6.563,2.856L142.466,174.441
		L30.262,62.241c-1.903-1.906-4.093-2.856-6.567-2.856c-2.475,0-4.665,0.95-6.567,2.856L2.856,76.515C0.95,78.417,0,80.607,0,83.082
		c0,2.473,0.953,4.663,2.856,6.565l133.043,133.046c1.902,1.903,4.093,2.854,6.567,2.854s4.661-0.951,6.562-2.854L282.082,89.647
		c1.902-1.903,2.847-4.093,2.847-6.565C284.929,80.607,283.984,78.417,282.082,76.511z"/>
</g>
<g>
</g>
<g>
</g>
<g>
</g>
<g>
</g>
<g>
</g>
<g>
</g>
<g>
</g>
<g>
</g>
<g>
</g>
<g>
</g>
<g>
</g>
<g>
</g>
<g>
</g>
<g>
</g>
<g>
</g>
</symbol><symbol id="quotation" viewBox="0 0 310.284 310.284">
<path d="M155.142,0C69.597,0,0,69.597,0,155.142s69.597,155.142,155.142,155.142s155.142-69.597,155.142-155.142
	S240.688,0,155.142,0z M79.171,231.401c-1.746,1.182-6.129,2.222-8.693-0.625l-4.731-5.95c-2.288-3.869,0.483-7.457,2.277-8.945
	c8.529-7.075,14.731-12.548,18.601-16.419c7.589-7.981,13.199-15.97,16.903-23.935c0.847-1.821-1.315-2.977-2.438-3.345
	c-27.967-9.166-41.955-25.325-41.955-48.474c0-13.639,4.53-24.722,13.585-33.242c9.059-8.525,20.407-12.785,34.041-12.785
	c12.146,0,22.909,5.539,32.283,16.621c9.165,10.438,13.744,21.735,13.744,33.881C152.789,163.78,128.251,198.185,79.171,231.401z
	 M185.61,231.401c-1.746,1.182-6.129,2.222-8.693-0.625l-4.731-5.95c-2.288-3.869,0.483-7.457,2.277-8.945
	c8.528-7.075,14.731-12.548,18.601-16.419c7.589-7.981,13.199-15.97,16.904-23.935c0.847-1.821-1.315-2.977-2.438-3.345
	c-27.967-9.166-41.955-25.325-41.955-48.474c0-13.639,4.53-24.722,13.585-33.242c9.06-8.525,20.407-12.785,34.041-12.785
	c12.146,0,22.909,5.539,32.283,16.621c9.164,10.438,13.744,21.735,13.744,33.881C259.228,163.78,234.69,198.185,185.61,231.401z"/>
<g>
</g>
<g>
</g>
<g>
</g>
<g>
</g>
<g>
</g>
<g>
</g>
<g>
</g>
<g>
</g>
<g>
</g>
<g>
</g>
<g>
</g>
<g>
</g>
<g>
</g>
<g>
</g>
<g>
</g>
</symbol><symbol id="star" viewBox="0 0 19.481 19.481">
  <g>
    <path d="m10.201,.758l2.478,5.865 6.344,.545c0.44,0.038 0.619,0.587 0.285,0.876l-4.812,4.169 1.442,6.202c0.1,0.431-0.367,0.77-0.745,0.541l-5.452-3.288-5.452,3.288c-0.379,0.228-0.845-0.111-0.745-0.541l1.442-6.202-4.813-4.17c-0.334-0.289-0.156-0.838 0.285-0.876l6.344-.545 2.478-5.864c0.172-0.408 0.749-0.408 0.921,0z"/>
  </g>
</symbol></svg>