<svg xmlns="http://www.w3.org/2000/svg"><symbol id="quotation" viewBox="0 0 310.284 310.284"><path d="M155.142 0C69.597 0 0 69.597 0 155.142s69.597 155.142 155.142 155.142 155.142-69.597 155.142-155.142S240.688 0 155.142 0zM79.171 231.401c-1.746 1.182-6.129 2.222-8.693-.625l-4.731-5.95c-2.288-3.869.483-7.457 2.277-8.945 8.529-7.075 14.731-12.548 18.601-16.419 7.589-7.981 13.199-15.97 16.903-23.935.847-1.821-1.315-2.977-2.438-3.345-27.967-9.166-41.955-25.325-41.955-48.474 0-13.639 4.53-24.722 13.585-33.242 9.059-8.525 20.407-12.785 34.041-12.785 12.146 0 22.909 5.539 32.283 16.621 9.165 10.438 13.744 21.735 13.744 33.881.001 35.597-24.537 70.002-73.617 103.218zm106.439 0c-1.746 1.182-6.129 2.222-8.693-.625l-4.731-5.95c-2.288-3.869.483-7.457 2.277-8.945 8.528-7.075 14.731-12.548 18.601-16.419 7.589-7.981 13.199-15.97 16.904-23.935.847-1.821-1.315-2.977-2.438-3.345-27.967-9.166-41.955-25.325-41.955-48.474 0-13.639 4.53-24.722 13.585-33.242 9.06-8.525 20.407-12.785 34.041-12.785 12.146 0 22.909 5.539 32.283 16.621 9.164 10.438 13.744 21.735 13.744 33.881 0 35.597-24.538 70.002-73.618 103.218z"/></symbol><symbol id="star" viewBox="0 0 19.481 19.481"><path d="M10.201.758l2.478 5.865 6.344.545a.5.5 0 01.285.876l-4.812 4.169 1.442 6.202a.5.5 0 01-.745.541l-5.452-3.288-5.452 3.288a.5.5 0 01-.745-.541l1.442-6.202-4.813-4.17a.5.5 0 01.285-.876l6.344-.545L9.28.758a.5.5 0 01.921 0z"/></symbol></svg>